<svg width="113" height="40" viewBox="0 0 113 40" fill="none" xmlns="http://www.w3.org/2000/svg">
<rect x="0.195312" width="36.8072" height="39.5644" rx="4" fill="#0C1012"/>
<path d="M15.7572 20.7998V31.6992C15.7572 32.177 15.2831 32.5599 14.7031 32.5599H9.46813C8.8844 32.5599 8.41406 32.177 8.41406 31.6992V20.8537C8.82305 20.8946 9.24505 20.9299 9.68006 20.956C10.2415 20.9894 10.8103 21.0136 11.3643 21.021C11.5279 21.0247 11.6952 21.0247 11.8681 21.0247C13.188 21.0247 14.4931 20.9522 15.7553 20.8017L15.7572 20.7998Z" fill="#437EFF"/>
<path d="M27.3234 15.9716V31.6989C27.3234 32.173 26.8494 32.5597 26.2656 32.5597H21.0343C20.4506 32.5597 19.9766 32.173 19.9766 31.6989V19.9759C20.1848 19.9183 20.393 19.8588 20.5956 19.7937C21.8653 19.3959 23.0532 18.894 24.1185 18.3102C25.325 17.6503 26.4013 16.8621 27.3234 15.9697V15.9716Z" fill="#437EFF"/>
<path d="M29.5196 6.43898C29.449 8.3389 28.9731 10.804 27.3501 13.0627C26.9746 13.5832 26.5433 14.0944 26.034 14.5833C25.1807 15.4106 24.2214 16.0892 23.2045 16.6506C22.1876 17.2083 21.1113 17.6452 20.0256 17.9854C19.2969 18.214 18.5681 18.3981 17.845 18.5468C17.1237 18.6992 16.4117 18.8126 15.7238 18.8963C14.086 19.1008 12.5802 19.1435 11.396 19.1231C10.8346 19.1156 10.2992 19.0971 9.79912 19.0636C9.29533 19.0338 8.82871 18.9911 8.39556 18.9465C6.5793 18.7457 5.41369 18.4334 5.24824 18.2828C5.13856 18.0207 5.23337 17.8571 5.23337 17.8571L5.25568 17.8273L5.25939 17.7939C5.27055 17.7362 5.33189 17.6954 5.39882 17.7028C6.41199 17.7827 9.15404 17.8162 12.7494 16.4703C16.012 15.2452 19.1184 13.2263 22.0203 10.447C22.0092 10.4545 21.998 10.4619 21.9906 10.4656C22.0148 10.4414 22.0631 10.3931 22.13 10.3262C22.6078 9.8447 24.0467 8.38909 24.623 7.67523C24.7512 7.51535 24.8776 7.37221 25.0022 7.24579C25.0636 7.16957 25.1268 7.09521 25.1881 7.01899C25.3629 6.80706 25.6733 6.58584 26.0526 6.37763C26.1176 6.33487 26.1734 6.30513 26.2199 6.2791C26.231 6.27538 26.2459 6.26795 26.2682 6.25679C26.2905 6.24936 26.3147 6.23448 26.3407 6.22333C27.3873 5.69537 28.7872 5.22875 29.4285 5.02426H29.4323C29.4657 5.00939 29.4862 5.00567 29.4862 5.00567V5.00939C29.4862 5.00939 29.4936 5.00567 29.501 5.00195C29.5289 5.42767 29.5401 5.91287 29.5215 6.44269L29.5196 6.43898Z" fill="#437EFF"/>
<path d="M29.5196 6.43898C29.449 8.3389 28.9731 10.804 27.3501 13.0627C26.9746 13.5832 26.5433 14.0944 26.034 14.5833C25.1807 15.4106 24.2214 16.0892 23.2045 16.6506C22.1876 17.2083 21.1113 17.6452 20.0256 17.9854C19.2969 18.214 18.5681 18.3981 17.845 18.5468C17.1237 18.6992 16.4117 18.8126 15.7238 18.8963C14.086 19.1008 12.5802 19.1435 11.396 19.1231C10.8346 19.1156 10.2992 19.0971 9.79912 19.0636C9.29533 19.0338 8.82871 18.9911 8.39556 18.9465C6.5793 18.7457 5.41369 18.4334 5.24824 18.2828C5.13856 18.0207 5.23337 17.8571 5.23337 17.8571L5.25568 17.8273L5.25939 17.7939C5.27055 17.7362 5.33189 17.6954 5.39882 17.7028C6.41199 17.7827 9.15404 17.8162 12.7494 16.4703C16.012 15.2452 19.1184 13.2263 22.0203 10.447C22.0092 10.4545 21.998 10.4619 21.9906 10.4656C22.0148 10.4414 22.0631 10.3931 22.13 10.3262C22.6078 9.8447 24.0467 8.38909 24.623 7.67523C24.7512 7.51535 24.8776 7.37221 25.0022 7.24579C25.0636 7.16957 25.1268 7.09521 25.1881 7.01899C25.3629 6.80706 25.6733 6.58584 26.0526 6.37763C26.1176 6.33487 26.1734 6.30513 26.2199 6.2791C26.231 6.27538 26.2459 6.26795 26.2682 6.25679C26.2905 6.24936 26.3147 6.23448 26.3407 6.22333C27.3873 5.69537 28.7872 5.22875 29.4285 5.02426H29.4323C29.4657 5.00939 29.4862 5.00567 29.4862 5.00567V5.00939C29.4862 5.00939 29.4936 5.00567 29.501 5.00195C29.5289 5.42767 29.5401 5.91287 29.5215 6.44269L29.5196 6.43898Z" fill="#437EFF"/>
<path d="M29.5196 6.43888C29.449 8.3388 28.9731 10.8039 27.3501 13.0626C26.9746 13.5831 26.5433 14.0943 26.034 14.5833C25.1807 15.4105 24.2214 16.0891 23.2045 16.6505C22.1876 17.2082 21.1113 17.6451 20.0256 17.9853C19.2969 18.2139 18.5681 18.398 17.845 18.5467C17.1237 18.6991 16.4117 18.8125 15.7238 18.8962C14.086 19.1007 12.5802 19.1434 11.396 19.123C10.8346 19.1155 10.2992 19.097 9.79912 19.0635C9.29533 19.0338 8.82871 18.991 8.39556 18.9464C6.5793 18.7456 5.41369 18.4333 5.24824 18.2827C5.13856 18.0206 5.23337 17.857 5.23337 17.857L5.25568 17.8272L5.25939 17.7938C5.27055 17.7362 5.33189 17.6953 5.39882 17.7027C6.41199 17.7826 9.15404 17.8161 12.7494 16.4702C16.012 15.2451 19.1184 13.2262 22.0203 10.4469C22.0742 10.3949 22.1263 10.3447 22.1802 10.2926C23.145 9.35941 24.0857 8.34438 25.0022 7.2457C25.0635 7.16948 25.1268 7.09512 25.1881 7.0189C25.3629 6.80697 25.6733 6.58575 26.0525 6.37753C26.1213 6.33478 26.192 6.2976 26.2682 6.25484C26.2905 6.2474 26.3147 6.23253 26.3407 6.22138C27.3873 5.69341 28.7872 5.2268 29.4285 5.02231H29.4323C29.4508 5.01487 29.4657 5.01115 29.4862 5.00744C29.4899 5.00372 29.4936 5.00372 29.501 5C29.5289 5.42572 29.5401 5.91092 29.5215 6.44074L29.5196 6.43888Z" fill="#437EFF"/>
<path d="M29.5224 6.43888C26.0368 7.84802 23.0846 9.70147 22.183 10.2908C22.1663 10.3019 22.1495 10.3131 22.1328 10.3242C22.6106 9.84275 24.0495 8.38714 24.6258 7.67327C24.754 7.5134 24.8804 7.37025 25.005 7.24384C25.0663 7.16762 25.1296 7.09326 25.1909 7.01704C25.3657 6.80511 25.6761 6.58389 26.0553 6.37568C26.1204 6.33292 26.1762 6.30317 26.2227 6.27715C26.2338 6.27343 26.2487 6.26599 26.271 6.25484C26.2933 6.2474 26.3175 6.23253 26.3435 6.22138C27.3901 5.69342 28.79 5.2268 29.4313 5.02231H29.4351C29.4685 5.00744 29.489 5.00372 29.489 5.00372V5.00744C29.489 5.00744 29.4964 5.00372 29.5038 5C29.5317 5.42572 29.5429 5.91092 29.5243 6.44074L29.5224 6.43888Z" fill="white"/>
<path d="M53.3899 20.3945C54.2705 20.3945 55.0381 20.2893 55.6927 20.0789C56.3472 19.8568 56.8887 19.5471 57.3171 19.1497C57.7574 18.7406 58.0847 18.2497 58.2989 17.677C58.5131 17.0926 58.6202 16.4439 58.6202 15.731C58.6202 15.053 58.5131 14.4394 58.2989 13.8901C58.0847 13.3408 57.7634 12.8732 57.3349 12.4875C56.9065 12.1018 56.365 11.8096 55.7105 11.6109C55.056 11.4005 54.2824 11.2953 53.3899 11.2953H49.8019V20.3945H53.3899ZM53.3899 7.64868C55.1155 7.64868 56.609 7.84738 57.8705 8.24477C59.1319 8.64217 60.1732 9.19735 60.9944 9.91032C61.8155 10.6233 62.4224 11.4765 62.8151 12.47C63.2198 13.4635 63.4221 14.5505 63.4221 15.731C63.4221 16.9582 63.2138 18.0861 62.7973 19.1146C62.3808 20.1315 61.756 21.0081 60.923 21.7444C60.0899 22.4808 59.0427 23.0535 57.7812 23.4626C56.5316 23.8717 55.0679 24.0762 53.3899 24.0762H49.8019V33H45V7.64868H53.3899Z" fill="white"/>
<path d="M70.9083 15.0121V33H66.4813V15.0121H70.9083ZM71.5152 9.77006C71.5152 10.1441 71.4378 10.4947 71.2831 10.822C71.1284 11.1492 70.9202 11.4356 70.6584 11.6811C70.4084 11.9265 70.1109 12.1252 69.7658 12.2771C69.4207 12.4174 69.0518 12.4875 68.6591 12.4875C68.2782 12.4875 67.9153 12.4174 67.5702 12.2771C67.2369 12.1252 66.9454 11.9265 66.6955 11.6811C66.4456 11.4356 66.2432 11.1492 66.0885 10.822C65.9457 10.4947 65.8743 10.1441 65.8743 9.77006C65.8743 9.38436 65.9457 9.02203 66.0885 8.68307C66.2432 8.34412 66.4456 8.05192 66.6955 7.80647C66.9454 7.56102 67.2369 7.36817 67.5702 7.22792C67.9153 7.07597 68.2782 7 68.6591 7C69.0518 7 69.4207 7.07597 69.7658 7.22792C70.1109 7.36817 70.4084 7.56102 70.6584 7.80647C70.9202 8.05192 71.1284 8.34412 71.2831 8.68307C71.4378 9.02203 71.5152 9.38436 71.5152 9.77006Z" fill="white"/>
<path d="M85.9353 23.445V15.1524C85.9353 14.3693 85.9889 13.5044 86.096 12.5577L78.081 23.445H85.9353ZM93.0221 23.445V25.9521C93.0221 26.1859 92.9448 26.3904 92.7901 26.5657C92.6353 26.7294 92.4152 26.8112 92.1296 26.8112H89.7733V33H85.9353V26.8112H75.0463C74.7488 26.8112 74.487 26.7235 74.2609 26.5482C74.0348 26.3612 73.892 26.1333 73.8325 25.8645L73.3683 23.673L85.5962 7.63115H89.7733V23.445H93.0221Z" fill="white"/>
<path d="M111.447 28.9676C111.923 28.9676 112.298 29.102 112.572 29.3709C112.857 29.628 113 29.9728 113 30.4053V33H95.292V31.5624C95.292 31.2702 95.3515 30.9663 95.4705 30.6507C95.6014 30.3234 95.8037 30.0312 96.0774 29.7741L103.914 22.06C104.568 21.4055 105.152 20.7802 105.663 20.1841C106.187 19.588 106.621 18.9978 106.966 18.4134C107.312 17.829 107.573 17.2387 107.752 16.6426C107.942 16.0348 108.037 15.3978 108.037 14.7316C108.037 14.1238 107.948 13.592 107.77 13.1362C107.591 12.6687 107.335 12.2771 107.002 11.9616C106.681 11.646 106.288 11.4122 105.824 11.2603C105.372 11.0967 104.86 11.0148 104.289 11.0148C103.765 11.0148 103.277 11.0908 102.825 11.2428C102.385 11.383 101.992 11.5875 101.647 11.8564C101.302 12.1135 101.01 12.4174 100.772 12.768C100.534 13.1187 100.356 13.5044 100.237 13.9252C100.034 14.4628 99.7725 14.8193 99.4512 14.9946C99.1299 15.1699 98.6658 15.2108 98.0588 15.1173L95.7382 14.7141C95.9167 13.4985 96.2619 12.4349 96.7736 11.5233C97.2853 10.5999 97.922 9.83434 98.6836 9.22657C99.4572 8.6071 100.338 8.14543 101.326 7.84154C102.325 7.52596 103.396 7.36817 104.539 7.36817C105.729 7.36817 106.818 7.54349 107.805 7.89413C108.793 8.23309 109.638 8.71814 110.34 9.34929C111.042 9.98044 111.59 10.7402 111.982 11.6285C112.375 12.5167 112.572 13.5044 112.572 14.5914C112.572 15.5264 112.429 16.3913 112.143 17.1861C111.869 17.9809 111.495 18.7406 111.019 19.4653C110.554 20.1899 110.007 20.8912 109.376 21.5691C108.746 22.247 108.085 22.9366 107.395 23.6379L101.575 29.4761C102.135 29.3124 102.688 29.1897 103.236 29.1079C103.795 29.0144 104.324 28.9676 104.824 28.9676H111.447Z" fill="white"/>
</svg>
